<svg width="168" height="265" viewBox="0 0 168 265" fill="none" xmlns="http://www.w3.org/2000/svg">
<path d="M73.4671 260.979C74.7421 257.637 76.7344 254.616 79.3036 252.13C81.8728 249.644 84.9564 247.753 88.337 246.59C90.5869 245.812 92.7256 244.626 94.9052 243.641C92.9087 242.708 90.746 242.185 88.5452 242.104C83.3392 241.918 78.4106 239.696 74.8189 235.914C74.1178 234.855 73.6483 233.66 73.4414 232.407C73.2344 231.154 73.2947 229.872 73.6182 228.645C74.2711 226.258 77.0948 227.332 78.8896 228.082C84.7109 230.401 91.0982 232.072 96.101 235.633C102.656 240.381 109.806 240.371 117.041 241.279C105.518 236.245 95.8495 227.733 89.3909 216.934C87.93 214.403 86.3176 214.441 84.0236 215.443C78.5635 217.78 72.3993 217.864 66.8707 215.677C61.3421 213.491 56.8961 209.209 54.4991 203.764C53.966 202.584 53.7344 200.51 54.4119 199.796C54.9978 199.415 55.6565 199.161 56.3463 199.049C57.0361 198.936 57.7419 198.969 58.4188 199.145C62.1613 199.837 65.8547 200.83 69.561 201.716L70.2479 201.791L69.6392 201.423C69.0251 200.635 68.3504 199.897 67.6213 199.214C62.7598 194.88 59.2798 189.211 57.6159 182.914C57.4266 181.469 57.4937 180.003 57.8142 178.582C59.0151 178.732 60.3951 178.506 61.377 179.006C68.1904 182.205 74.1798 186.929 78.8817 192.812C77.895 188.633 77.2227 184.386 76.8704 180.107C76.7985 173.713 74.7559 167.494 71.0217 162.3C69.0022 158.682 67.1691 154.963 65.5297 151.158C65.0249 150.283 63.5127 149.122 62.7738 149.301C48.4354 152.816 37.1385 144.53 24.9782 139.594C22.3997 138.602 22.4771 136.077 25.0751 134.701C27.2272 133.507 29.5963 132.754 32.0437 132.488C41.6173 131.891 51.1641 134.07 59.539 138.765C57.8438 133.642 55.952 129.078 54.8283 124.344C53.337 117.987 52.8483 111.522 55.9644 105.382C57.4159 102.534 59.6101 101.789 61.4141 103.798C63.7099 106.186 65.6372 108.902 67.1322 111.858C69.0866 116.106 70.1684 120.702 70.3134 125.374C70.4584 130.046 69.6636 134.698 67.9762 139.054C67.1728 141.042 66.9033 143.208 67.1946 145.334C68.727 152.006 71.6219 158.291 75.6971 163.793C76.9011 156.871 77.9056 150.462 79.2355 144.187C81.7609 132.802 85.9791 121.863 91.7495 111.735C92.4905 110.643 92.8782 109.35 92.8599 108.029C92.8416 106.709 92.4183 105.425 91.6472 104.352C89.5681 101.137 87.8126 97.7103 85.7892 94.4631C80.9154 86.5361 75.5869 79.194 65.0624 78.7216C64.7284 78.6866 64.4018 78.5988 64.0951 78.4615C57.5599 76.3429 52.0551 71.8448 48.6723 65.8593C47.1685 63.2547 48.2922 61.3408 51.2474 61.0981C52.2378 61.1288 53.2212 61.2772 54.1769 61.5401C61.9716 63.1173 69.3846 65.5349 74.9769 70.889C75.2972 66.6235 75.8839 62.3826 76.7337 58.1912C77.1693 56.501 79.5689 55.3388 81.0891 53.9402C82.5144 55.1349 83.7097 56.5802 84.6159 58.2046C86.9755 65.7228 87.2351 73.1635 82.7612 80.2116C82.4624 80.8485 82.3168 81.5469 82.3362 82.2508C82.3556 82.9546 82.5393 83.6444 82.8728 84.2649C86.6841 90.5232 90.7076 96.6342 94.7496 102.735C94.9322 103.051 96.616 102.922 96.708 102.695C98.8087 96.7694 101.762 90.9468 102.573 84.8472C104.039 73.5328 98.1133 64.8985 90.0281 57.5853C78.4644 47.1209 56.8305 40.6595 41.8018 51.6432C40.0843 52.8061 38.7414 54.4431 37.9358 56.3559C36.4823 60.0447 34.4373 63.4708 31.8814 66.4994C27.1659 71.334 22.1985 75.9159 17 80.2259C15.8875 81.2155 13.7488 82.4007 12.847 81.9539C12.1142 81.4791 11.4852 80.8602 10.9984 80.1349C10.5115 79.4096 10.177 78.5931 10.0149 77.7349C9.59174 75.0183 9.77256 72.2427 10.5445 69.6059C11.3164 66.9692 12.6605 64.5363 14.4808 62.4808C18.208 57.6994 23.5613 55.4769 28.8765 53.1027L29.1179 52.9633L28.8765 53.1027L22.9134 53.1967C19.0065 53.3166 15.1251 52.5129 11.584 50.8508C8.04291 49.1887 4.94194 46.715 2.53274 43.6305C-1.05656 39.1293 0.375435 36.1196 6.04445 35.7737C10.21 35.4249 14.4008 35.4987 18.5528 35.9937C26.6701 37.1862 34.13 39.8993 37.7713 48.265C38.6226 50.2541 39.7067 49.4297 40.866 48.7356C53.236 41.296 65.976 41.5312 78.9716 46.9272C81.3077 47.8854 83.6282 48.9022 85.9379 49.9004C85.5571 49.2405 85.0904 48.6341 84.5501 48.0971C75.5579 40.8858 66.7546 33.1438 54.8971 30.6628C45.8342 28.776 39.96 22.4188 34.8513 15.3716C33.8971 14.062 34.4434 11.6629 34.2899 9.7671C35.8614 9.6295 37.4442 9.69075 39.001 9.94941C48.3603 12.6191 57.0284 17.299 64.4008 23.6627C64.2385 21.6231 64.0321 19.8074 63.9401 17.9753C63.4841 12.6162 65.0537 7.28398 68.3383 3.03302C71.5053 -1.00317 75.2665 -0.793348 76.5594 3.71907C78.1631 9.26439 79.1636 14.9661 79.5431 20.7248C79.7374 22.9887 79.367 25.2647 78.4651 27.3484C77.5633 29.432 76.1583 31.2581 74.3762 32.6628C71.7573 34.6461 72.487 35.2667 74.6677 36.5131C76.7171 37.6051 78.6355 38.9277 80.3856 40.4551C84.4171 44.0819 88.2331 47.9417 91.814 52.0148C94.4585 55.4987 96.885 59.143 99.0797 62.9266C99.6558 60.3315 99.9269 57.6775 99.8875 55.0185C100.697 44.9264 105.09 41.2985 111.779 39.0737C115.483 37.8535 116.729 39.0687 116.44 42.8572C115.479 52.5158 112.979 61.5248 104.957 67.9175C103.757 68.8834 103.337 69.399 104.042 71.0504C105.631 74.551 106.481 78.3411 106.539 82.1833C106.597 86.0255 105.862 89.8371 104.379 93.3795C101.181 101.179 97.4529 108.789 93.695 116.391C89.6273 124.05 86.6845 132.257 84.9576 140.759C87.7371 139.362 90.3163 137.598 92.6263 135.513C98.7433 129.724 104.387 123.415 110.804 117.974C112.602 116.684 113.956 114.868 114.681 112.775C115.405 110.682 115.465 108.415 114.851 106.285C113.822 101.265 113.271 96.1601 113.205 91.0376C113.254 88.2015 113.864 85.4041 114.999 82.8069C116.135 80.2098 117.774 77.8643 119.821 75.9061C122.5 73.1688 124.85 73.7221 126.185 77.1929C126.503 78.1352 126.738 79.103 126.89 80.0855C128.627 89.3464 127.645 98.9087 124.063 107.615L129.132 105.929C135.106 103.967 141.123 102.851 146.998 105.908C147.835 106.292 148.579 106.851 149.182 107.547C149.784 108.243 150.231 109.06 150.492 109.943C150.3 110.871 149.905 111.745 149.336 112.502C148.768 113.259 148.039 113.881 147.202 114.323C143.29 116.517 138.981 117.91 134.524 118.422C130.067 118.935 125.551 118.555 121.24 117.307C119.933 116.82 118.51 116.741 117.158 117.079C115.806 117.416 114.589 118.156 113.665 119.199C107.849 125.038 102.033 130.876 96.0647 136.579C92.9744 139.505 90.0452 142.709 85.4138 143.522C84.7647 143.788 84.1909 144.21 83.7428 144.75C83.2946 145.29 82.9858 145.931 82.8433 146.619C81.904 155.843 80.3823 165.131 80.6724 174.34C81.0162 191.056 86.6715 207.237 96.8181 220.534C100.382 225.248 108.341 231.915 112.633 233.257C111.775 230.999 110.78 228.547 109.908 226.049C108.872 222.254 106.447 218.987 103.114 216.899C98.7887 214.313 95.4345 210.373 93.5715 205.689C91.8329 201.434 91.057 197.045 93.2352 192.711C95.3009 188.74 98.1623 188.378 100.035 192.308C102.294 197.089 104.249 202.009 105.889 207.036C106.937 210.053 107.449 213.255 108.205 216.366L109.282 216.215C109.214 214.468 109.224 212.727 109.089 210.993C108.389 201.674 113.159 197.283 120.171 193.259C121.88 192.272 123.864 192.02 123.747 195.163C123.655 204.568 122.24 213.397 113.801 219.411C113.269 219.844 112.843 220.392 112.555 221.014C112.266 221.636 112.123 222.316 112.135 223.002C113.818 232.994 119.37 238.322 129.307 239.878C130.947 240.152 132.608 240.273 134.269 240.238C161.44 239.434 180.692 226.285 192.403 202.135C196.701 193.795 198.251 184.304 196.831 175.021C196.031 170.248 193.909 166.314 189.41 164.57C183.416 162.251 177.148 160.487 170.968 158.747C169.862 158.418 168.22 159.391 167.042 160.096C161.563 163.259 156.417 166.999 150.857 169.936C145.298 172.873 139.141 174.046 133.356 170.118C131.602 168.923 128.725 167.458 129.874 164.687C131.023 163.025 132.712 161.813 134.654 161.257C141.142 158.727 147.714 156.471 154.054 154.199C151.088 151.422 148.359 149.053 145.916 146.495C145.607 146.037 145.411 145.512 145.344 144.964C145.278 144.416 145.342 143.86 145.533 143.343C145.833 142.747 147.486 142.438 148.44 142.631C156.804 144.252 165.092 146.04 170.261 153.921C170.867 154.72 171.715 155.301 172.678 155.576C179.142 157.55 185.637 159.406 192.273 161.379C187.345 154.302 182.009 147.461 174.602 142.782C169.415 139.501 164.013 136.493 157.688 136.002C145.902 135.018 135.479 138.753 125.888 145.258C125.552 145.562 125.282 145.93 125.094 146.342C124.905 146.753 124.803 147.199 124.793 147.652C124.724 154.265 121.32 159.306 117.281 164.02C113.242 168.733 109.432 172.942 105.38 177.29C104.307 178.18 103.121 178.923 101.852 179.501C100.998 178.196 100.368 176.757 99.9887 175.243C99.4806 167.185 102.146 159.253 107.413 153.147C107.844 152.65 108.337 152.216 108.738 151.711C109.14 151.207 109.237 150.903 109.071 151.172C104.716 151.007 100.286 151.01 95.8874 150.598C95.2895 150.422 94.7413 150.108 94.2877 149.68C93.834 149.252 93.4878 148.723 93.2774 148.136C93.0529 147.447 94.0777 145.962 94.9477 145.41C98.004 143.112 101.328 141.193 104.847 139.695C110.337 137.84 116.101 136.67 121.31 141.104C121.77 141.337 122.274 141.465 122.788 141.481C123.302 141.497 123.813 141.4 124.286 141.197C127.042 140.052 129.685 138.626 132.395 137.358C142.391 132.754 152.689 130.603 163.651 133.378C162.821 132.369 162.02 131.368 161.171 130.37C158.717 127.761 156.886 124.629 155.818 121.211C154.749 117.793 154.471 114.177 155.004 110.638C155.486 107.655 156.922 106.926 158.847 108.716C166.63 115.308 171.828 124.447 173.513 134.506C173.614 135.661 173.984 136.778 174.593 137.766C175.202 138.754 176.034 139.586 177.021 140.195C186.114 146.852 193.612 154.777 197.684 165.648C200.555 173.375 201.502 181.683 200.442 189.853C202.794 184.278 204.937 178.725 206.706 173.04C207.766 169.6 209.732 165.414 208.608 162.565C207.655 160.015 203.209 158.662 200.212 156.945C191.829 152.16 187.478 145.097 188.01 135.339C188.126 132.965 187.765 129.552 190.78 129.2C192.336 129.021 194.65 131.356 195.926 133.051C199.943 138.421 203.647 144.022 207.693 149.872C207.12 146.204 207.796 142.451 209.611 139.217C211.426 135.983 214.276 133.454 217.702 132.038C218.944 131.445 221.194 130.667 221.668 131.187C222.555 132.429 222.974 133.945 222.85 135.465C222.186 144.952 218.334 153.378 214.312 161.852C212.069 166.545 210.496 171.497 208.605 176.285C212.091 174.818 214.62 172.936 217.377 171.493C220.059 169.987 223.015 169.032 226.073 168.686C229.13 168.339 232.226 168.607 235.18 169.475C235.762 169.694 236.291 170.033 236.735 170.469C237.178 170.905 237.526 171.428 237.756 172.006C237.981 172.695 236.976 174.044 236.203 174.763C234.597 176.219 232.881 177.549 231.072 178.743C225.526 182.391 219.918 186.745 212.918 185.9C207.067 185.16 204.523 187.1 202.474 192.302C200.672 196.815 196.971 200.44 194.908 204.93C188.773 218.246 178.538 229.241 165.7 236.305C150.243 244.659 133.275 246.021 116.056 244.676C112.92 244.319 109.808 243.771 106.739 243.035C104.424 242.586 103.009 242.708 102.133 245.694C100.914 248.863 99.1232 251.781 96.8501 254.301C91.282 260.74 82.6501 260.887 75.4222 263.894C73.2103 264.824 72.5202 263.114 73.4671 260.979ZM71.489 206.085C67.44 204.776 63.2021 203.998 58.2569 202.81C62.5284 211.581 74.6722 216.402 83.0406 213.183C83.5668 212.857 84.0298 212.438 84.4073 211.947C83.9632 211.493 83.4609 211.099 82.9136 210.776C79.0308 209.197 75.3172 207.397 71.3962 206.139L71.489 206.085ZM61.1135 182.581C64.5094 193.396 71.8117 199.052 80.9279 204.034C77.3411 193.875 70.3567 187.911 61.0207 182.635L61.1135 182.581ZM61.4836 107.95C60.9186 107.212 60.1058 106.703 59.1956 106.518C58.8761 106.479 58.1211 107.659 57.8218 108.427C55.5065 115.568 56.9663 122.515 59.3302 129.311C60.4945 132.657 62.0918 135.853 63.8832 140.028C69.0238 128.13 67.9934 117.81 61.4015 108.022L61.4836 107.95ZM74.886 75.4066C68.922 68.6795 61.2415 65.4985 52.0043 64.382C52.9224 66.5005 54.2574 68.4127 55.9295 70.0045C57.6016 71.5963 59.5765 72.835 61.7363 73.6468C65.534 75.2494 69.5421 76.3585 73.4709 77.5878C74.2485 77.7057 75.0396 77.701 75.8153 77.5738C75.567 76.8045 75.1917 76.0821 74.7051 75.4365L74.886 75.4066ZM82.7829 73.1294C84.2236 67.9944 83.7018 62.5035 81.319 57.7268C80.2597 59.9981 79.4692 62.3858 78.9637 64.8415C78.8966 67.6464 79.1604 70.4499 79.7496 73.1939C80.0415 74.4951 80.4243 75.7745 80.8952 77.0223C81.5898 75.7942 82.1615 74.5003 82.6021 73.1594L82.7829 73.1294ZM16.8758 65.0421C15.3138 67.8956 14.0754 70.9152 13.1837 74.0449C12.8461 75.1328 13.5266 76.526 13.7381 77.793L17.0985 76.1505C23.1176 70.9638 29.9975 66.0243 33.9939 58.2349C34.5061 57.3992 34.8822 56.4871 35.1081 55.5327C35.162 55.1543 33.7758 54.1686 33.6272 54.2544C27.9527 58.1507 20.4414 58.8657 16.695 65.0721L16.8758 65.0421ZM26.2578 41.3187C19.9071 38.511 13.092 38.5016 6.28643 38.8091C5.52252 38.9656 4.78955 39.2463 4.11664 39.6401C4.33924 40.5114 4.70122 41.3412 5.18855 42.0972C8.8719 46.436 14.1131 49.1496 19.7761 49.65C23.6732 49.8806 27.7034 49.6127 31.6405 49.8697C35.5776 50.1268 34.7319 48.705 33.5712 46.0512C31.2146 44.2681 28.707 42.6946 26.077 41.3486L26.2578 41.3187ZM63.189 28.0832C59.6288 24.9199 55.884 21.9712 51.9744 19.2528C48.2416 17.0838 44.3618 15.1793 40.3636 13.5533C39.587 13.3411 38.785 13.2366 37.9803 13.2425L38.3417 15.7129C42.0342 20.7377 47.1024 24.5845 52.9317 26.7867C55.9597 27.7424 58.887 28.7809 61.8857 29.7287C62.3505 29.8039 62.8233 29.8147 63.2909 29.7607C63.2667 29.2042 63.3794 28.3701 63.0453 28.0917L63.189 28.0832ZM71.1667 31.0926C73.2429 29.037 74.894 26.5919 76.0257 23.8967C77.9409 17.6065 75.5621 11.5133 74.0432 5.49425C73.1481 3.2576 71.5659 3.47653 70.7971 5.06146C69.0232 8.01257 67.8501 11.2863 67.3452 14.6946C67.4479 19.8046 67.9083 24.9017 68.7232 29.9484C68.736 31.9006 69.8566 32.4691 71.023 31.1011L71.1667 31.0926ZM86.1626 50.118C86.3022 50.3599 86.5718 50.5267 86.7858 50.7256C86.7213 50.614 86.7947 50.398 86.7547 50.3715C86.5634 50.2733 86.3656 50.1886 86.1626 50.118ZM104.927 64.0902C108.743 59.705 111.355 54.4019 112.508 48.6994C112.692 47.8927 112.806 47.0716 112.849 46.2451C112.919 44.8652 112.875 43.5017 112.934 42.1031L107.663 43.1374C105.907 46.0638 104.472 49.1712 103.381 52.4061C102.831 55.9988 102.66 59.6398 102.868 63.2695C102.932 63.8462 103.09 64.4088 103.335 64.9351C103.916 64.7612 104.457 64.474 104.927 64.0902ZM144.704 111.97C145.504 111.441 146.269 110.859 146.992 110.228C146.086 109.56 145.186 108.343 144.281 108.32C140.058 108.075 135.822 108.252 131.635 108.849C128.045 109.922 124.565 111.333 121.241 113.064L121.687 114.221C129.491 115.172 137.314 116.113 144.683 111.933L144.704 111.97ZM122.119 103.776C124.736 96.0715 125.279 87.8102 123.692 79.823C123.216 78.7537 122.63 77.7373 121.942 76.7905C120.185 79.8925 118.589 83.0828 117.159 86.3486C115.043 92.0349 116.345 97.8071 117.325 103.493C117.69 105.539 118.291 107.524 118.788 109.544C120.078 107.731 121.193 105.8 122.119 103.776ZM59.2892 142.407C51.6756 137.635 42.808 135.262 33.8375 135.595C31.7677 135.699 29.7339 136.079 27.6729 136.327C37.1156 141.144 46.1817 146.725 57.0855 146.954C57.4147 147 57.7496 146.983 58.0725 146.905C59.6872 146.27 61.2696 145.58 62.8628 144.908C61.704 143.986 60.4967 143.126 59.2462 142.333L59.2892 142.407ZM114.636 214.638C116.657 212.484 118.226 209.946 119.25 207.174C120.273 204.401 120.731 201.45 120.595 198.496C120.599 198.246 119.199 197.665 118.732 197.885C117.064 198.608 115.614 199.752 114.521 201.204C113.428 202.657 112.731 204.369 112.497 206.173C112.285 209.104 112.271 212.045 112.455 214.978C113.466 214.842 114.299 214.956 114.689 214.731L114.636 214.638ZM149.369 159.509C144.831 160.913 140.38 162.64 135.894 164.262C135.165 164.564 134.457 164.914 133.776 165.312C134.223 166.12 134.821 166.836 135.538 167.42C137.751 168.546 140.219 169.073 142.698 168.948C145.176 168.823 147.577 168.05 149.662 166.707C155.041 163.8 160.248 160.595 165.597 157.507C159.798 155.398 154.613 157.87 149.369 159.509ZM151.385 145.545L150.79 146.831C154.656 150.652 159.033 153.259 164.692 152.895L165.215 151.699L151.385 145.545ZM116.78 142.008C111.176 140.407 106.087 142.229 100.45 144.689L98.5998 147.147C99.6844 147.438 100.872 148.166 101.858 147.944C106.948 146.767 111.997 145.39 117.046 144.013C117.485 143.795 117.873 143.487 118.183 143.108C117.718 142.732 117.308 142.15 116.78 142.008ZM116.641 149.53C108.949 155.336 102.982 162.973 103.507 174.304C110.043 167.181 117.052 161.522 120.633 153.055C121.217 151.206 121.629 149.308 121.864 147.383C120.031 147.855 118.262 148.552 116.598 149.456L116.641 149.53ZM158.201 112.016C157.48 120.718 161.203 127.251 170.674 134.433C168.567 125.961 164.247 118.199 158.159 111.942L158.201 112.016ZM215.745 151.424C217.413 146.592 218.725 141.617 220.107 136.677C220.171 135.881 220.109 135.079 219.925 134.302L218.033 134.799C212.638 138.88 209.971 143.868 210.908 150.422C211.264 152.97 211.783 155.498 212.235 158.04C213.598 155.943 214.773 153.729 215.745 151.424ZM193.45 134.853C192.932 134.373 192.385 133.927 191.811 133.516C191.502 134.086 191.28 134.699 191.153 135.335C191.013 141.741 192.573 147.488 198.007 151.495C200.55 153.327 203.233 154.928 206.536 157.089C204.159 148.646 199.65 140.955 193.444 134.757L193.45 134.853ZM210.349 183.166C216.655 183.966 221.856 181.137 226.793 177.765C229.077 176.446 231.362 175.127 233.646 173.808C234.021 173.53 234.357 173.203 234.644 172.835C234.166 172.54 233.655 172.302 233.121 172.127C228.583 171.053 223.808 171.813 219.832 174.243C216.266 176.302 212.891 178.648 209.462 180.9C208.968 181.335 208.529 181.83 208.157 182.373C208.855 182.692 209.589 182.926 210.343 183.07L210.349 183.166ZM104.205 211.283C102.332 206.237 100.478 201.181 98.5195 196.16C98.0536 195.366 97.4651 194.651 96.7761 194.041C96.1784 194.938 95.7289 195.926 95.4448 196.967C94.8428 203.516 98.2993 208.045 102.714 212.045L104.205 211.283ZM77.147 230.725C76.6939 231.172 76.3577 231.724 76.1681 232.332C78.069 234.038 79.8514 236.481 82.1114 237.136C86.6477 238.234 91.249 239.041 95.8872 239.552C90.8267 234.089 83.8235 232.724 77.1099 230.746L77.147 230.725ZM96.7071 239.599L96.3054 239.633L96.3806 239.763C96.3806 239.763 96.5957 239.663 96.67 239.621L96.7071 239.599ZM98.5681 245.396C91.5311 249.806 82.4544 250.383 78.0727 258.792C88.6603 258.087 96.4021 253.096 98.5309 245.417L98.5681 245.396Z" fill="black" fill-opacity="0.1"/>
</svg>
