<?xml version="1.0" standalone="no"?>
<!DOCTYPE svg PUBLIC "-//W3C//DTD SVG 20010904//EN"
 "http://www.w3.org/TR/2001/REC-SVG-20010904/DTD/svg10.dtd">
<svg version="1.0" xmlns="http://www.w3.org/2000/svg"
 width="1920.000000pt" height="776.000000pt" viewBox="0 0 1920.000000 776.000000"
 preserveAspectRatio="xMidYMid meet">

<g transform="translate(0.000000,776.000000) scale(0.100000,-0.100000)"
fill="#000000" stroke="none">
<path d="M0 3880 l0 -3880 9600 0 9600 0 0 3880 0 3880 -9600 0 -9600 0 0
-3880z m5595 2416 c16 -15 42 -25 71 -29 59 -6 73 -20 49 -47 -10 -11 -28 -20
-41 -20 -12 0 -39 -15 -58 -34 -45 -42 -48 -63 -6 -41 35 18 38 10 10 -25 -11
-14 -20 -40 -20 -57 0 -26 4 -33 20 -33 34 0 89 -36 116 -76 15 -21 19 -32 10
-25 -14 12 -16 10 -16 -18 0 -24 4 -31 16 -29 9 2 21 -6 28 -17 24 -43 61 -57
62 -23 0 13 4 37 8 54 6 27 13 33 44 38 20 3 40 4 43 3 3 -1 13 4 23 12 22 18
32 8 11 -12 -8 -9 -15 -20 -15 -25 0 -10 -51 -57 -83 -77 -9 -6 -18 -31 -22
-59 -5 -44 -4 -48 9 -36 11 8 20 9 29 3 6 -5 32 -15 56 -22 40 -12 43 -14 26
-24 -30 -16 -90 -26 -204 -33 -102 -5 -145 -17 -170 -47 -9 -12 -5 -26 23 -74
19 -33 43 -66 52 -74 38 -31 74 -93 74 -126 0 -25 4 -33 18 -33 14 0 15 -2 2
-10 -13 -9 -13 -11 0 -20 8 -5 11 -10 6 -10 -6 0 -5 -5 2 -12 8 -8 15 -8 26 1
22 19 63 -3 106 -55 37 -45 67 -66 56 -39 -3 10 8 6 30 -11 30 -24 33 -29 19
-37 -11 -6 -21 -5 -28 2 -6 6 -15 11 -19 11 -9 0 6 -21 34 -48 13 -12 15 -18
5 -24 -20 -13 -76 -9 -108 7 -16 9 -55 17 -87 19 -32 2 -76 12 -97 22 l-40 17
35 6 c30 5 35 10 38 37 3 31 -36 134 -51 134 -5 0 -6 -14 -2 -31 10 -43 -3
-119 -20 -119 -7 0 -15 -5 -17 -12 -4 -10 -16 -10 -57 0 -29 7 -77 12 -108 12
-54 0 -55 1 -49 25 10 40 28 272 29 377 0 86 2 97 20 102 23 6 16 36 -17 78
-24 31 -35 33 -62 13 -18 -14 -18 -14 11 -15 l30 -1 -24 -19 c-13 -11 -29 -20
-36 -20 -24 0 -71 22 -57 27 6 3 12 9 12 15 0 18 45 47 73 48 32 0 87 48 87
75 0 9 -6 29 -14 43 -22 44 -46 128 -46 161 0 17 9 45 20 63 22 37 26 88 9
106 -9 8 -2 20 27 47 56 52 69 63 71 64 1 1 13 -10 28 -23z m254 -118 c2 -6 7
-4 12 3 7 11 9 11 9 -2 0 -9 -6 -19 -14 -22 -15 -6 -56 19 -56 34 0 13 43 0
49 -13z m91 -18 c0 -5 -8 -10 -17 -10 -15 0 -16 2 -3 10 19 12 20 12 20 0z
m-190 -35 c16 -19 1 -19 -24 0 -16 12 -17 15 -4 15 8 0 21 -7 28 -15z m167
-55 c53 -41 66 -60 39 -60 -8 0 -27 -18 -43 -40 -32 -46 -63 -53 -63 -15 0 14
-6 25 -14 25 -10 0 -13 15 -13 58 1 85 16 90 94 32z m83 -71 c0 -5 -4 -9 -10
-9 -5 0 -10 7 -10 16 0 8 5 12 10 9 6 -3 10 -10 10 -16z m-720 -224 c0 -14 -2
-25 -4 -25 -2 0 -6 11 -8 25 -3 14 -1 25 3 25 5 0 9 -11 9 -25z m627 -11 c-3
-3 -12 -4 -19 -1 -8 3 -5 6 6 6 11 1 17 -2 13 -5z m-3148 -25 c50 -11 91 -25
91 -29 0 -9 62 -30 88 -30 7 0 10 5 6 11 -4 7 1 9 15 5 11 -3 30 -9 41 -12 16
-4 18 -9 10 -23 -5 -10 -6 -22 -2 -26 4 -5 -1 -5 -10 -2 -9 3 -18 1 -20 -4 -2
-6 -29 -11 -60 -12 -35 -1 -59 -6 -62 -13 -4 -9 -27 -12 -80 -9 -55 3 -79 0
-89 -10 -23 -23 -67 -23 -67 0 0 7 -8 18 -17 24 -17 9 -17 10 0 17 10 3 38 4
62 1 50 -7 57 -2 44 32 -9 22 -13 23 -58 18 -41 -5 -50 -3 -53 11 -4 15 -19
17 -124 15 -123 -3 -204 -16 -240 -40 -23 -14 -34 -9 -34 18 0 14 15 20 73 29
39 7 83 17 97 23 14 6 86 14 160 17 74 4 136 7 137 8 1 1 42 -7 92 -19z m3301
-74 c0 -16 -45 -21 -54 -6 -8 12 4 21 31 21 14 0 23 -6 23 -15z m-3504 -60
c-13 -10 -17 -21 -13 -37 l6 -23 -20 24 c-29 35 -24 51 14 51 30 -1 31 -2 13
-15z m-94 -30 c-5 -27 -114 -175 -129 -175 -20 0 -24 17 -7 31 16 13 58 89 49
89 -16 0 -78 -41 -96 -64 -11 -14 -25 -24 -30 -21 -21 13 -6 35 44 65 28 17
74 47 101 66 52 36 73 39 68 9z m3427 -111 c13 -54 9 -142 -8 -187 -6 -17 -10
-15 -35 17 -25 33 -26 38 -12 52 12 11 16 36 16 88 0 68 4 86 20 86 4 0 12
-25 19 -56z m221 5 c0 -11 -4 -17 -10 -14 -5 3 -10 -1 -10 -9 0 -25 38 -19 43
7 2 12 5 4 6 -19 1 -40 0 -40 -29 -36 -25 3 -30 9 -30 31 0 38 11 72 21 65 5
-3 9 -14 9 -25z m-3151 -21 c17 -6 21 -12 14 -19 -13 -13 -87 7 -104 27 -8 10
-3 12 28 7 21 -3 49 -10 62 -15z m3297 -51 c-3 -16 -6 -45 -6 -65 l0 -35 -25
23 c-19 18 -25 33 -25 67 0 25 5 54 11 66 l12 21 19 -24 c14 -17 18 -33 14
-53z m-459 -39 c-3 -8 -6 -5 -6 6 -1 11 2 17 5 13 3 -3 4 -12 1 -19z m202 -63
c0 -5 -4 -3 -9 5 -5 8 -9 22 -9 30 0 16 17 -16 18 -35z m-2667 -28 c4 -6 4
-16 1 -22 -3 -5 -1 -5 6 1 14 13 63 0 92 -25 15 -12 14 -15 -6 -37 -19 -21
-27 -23 -49 -14 -14 5 -26 6 -26 2 0 -4 -4 -2 -8 4 -15 22 -82 65 -91 60 -5
-4 -13 -1 -17 5 -5 8 -2 10 7 5 8 -5 8 -2 -2 6 -9 7 -14 19 -11 26 5 15 93 6
104 -11z m3068 -47 c0 -11 -4 -20 -9 -20 -5 0 -7 9 -4 20 3 11 7 20 9 20 2 0
4 -9 4 -20z m-30 -9 c0 -24 -18 -37 -32 -23 -8 8 -7 16 2 27 17 21 30 19 30
-4z m-252 -33 c20 -20 13 -30 -18 -26 -21 3 -30 0 -30 -9 0 -8 -4 -11 -10 -8
-16 10 -11 43 8 48 30 8 38 7 50 -5z m-28 -68 c0 -5 -4 -10 -10 -10 -5 0 -10
5 -10 10 0 6 5 10 10 10 6 0 10 -4 10 -10z m-2280 -20 c10 0 28 -11 41 -25 13
-13 33 -25 45 -25 15 0 20 -6 18 -22 -1 -13 -3 -27 -3 -32 -1 -6 -6 -5 -12 1
-8 8 -20 8 -36 2 -30 -11 -68 -3 -110 25 -38 24 -42 41 -13 49 11 3 20 13 20
22 0 12 5 15 16 11 9 -3 24 -6 34 -6z m1509 -4 c7 -8 28 -17 47 -21 28 -5 59
-30 143 -115 100 -100 112 -109 156 -116 32 -4 69 -1 113 9 73 18 77 16 89
-37 3 -17 24 -80 45 -140 22 -61 52 -154 68 -206 l28 -95 -20 -18 c-20 -17
-20 -17 5 -37 13 -11 28 -31 31 -46 4 -15 12 -24 20 -21 7 3 17 -7 23 -23 9
-25 8 -27 -9 -22 -10 2 -18 1 -17 -4 5 -31 -5 -35 -111 -47 -14 -1 -32 1 -40
5 -8 4 -39 14 -67 23 -55 17 -73 36 -108 110 -11 22 -20 42 -20 45 -1 3 -9 22
-18 43 -9 21 -16 48 -15 60 1 12 -5 59 -12 104 -16 99 -7 130 40 139 16 4 30
12 30 18 0 19 -123 128 -167 148 -23 10 -44 22 -47 26 -8 14 -169 8 -192 -7
-19 -13 -26 -11 -65 17 -35 25 -55 32 -94 32 -133 2 -135 2 -135 21 0 17 -70
58 -101 59 -21 1 139 81 191 96 64 18 194 18 209 0z m784 -73 c-7 -2 -21 -2
-30 0 -10 3 -4 5 12 5 17 0 24 -2 18 -5z m-1958 -87 c22 -20 32 -36 26 -41 -6
-3 -11 -2 -11 4 0 5 -21 11 -47 13 -37 2 -47 7 -44 18 2 8 4 21 4 28 1 22 34
12 72 -22z m348 2 c3 -10 7 -10 18 -1 9 7 20 8 28 3 12 -7 11 -11 -4 -26 -12
-12 -14 -19 -6 -22 9 -3 9 -8 1 -17 -6 -7 -9 -19 -8 -26 4 -18 -57 -16 -124 2
-47 13 -64 29 -31 29 15 0 14 2 -3 14 -10 8 -20 10 -22 5 -2 -5 -11 -9 -20 -9
-12 1 -9 7 13 25 20 17 45 25 80 28 27 2 55 4 62 5 6 1 13 -4 16 -10z m1924
-40 c-3 -8 -6 -5 -6 6 -1 11 2 17 5 13 3 -3 4 -12 1 -19z m-1860 -74 c-3 -3
-12 -4 -19 -1 -8 3 -5 6 6 6 11 1 17 -2 13 -5z m-4 -25 c26 -6 64 -9 85 -5 21
3 67 -1 107 -10 129 -30 145 -36 145 -56 0 -10 10 -23 23 -28 21 -8 21 -9 -5
-9 -15 -1 -29 -5 -33 -10 -3 -6 -17 -4 -33 5 -16 8 -57 14 -104 14 -86 0 -146
23 -175 66 -12 18 -24 24 -54 24 -37 0 -55 10 -42 24 4 3 14 4 22 2 9 -3 38
-10 64 -17z m1875 -53 c8 -4 11 -14 8 -22 -3 -8 -2 -14 2 -14 4 0 13 -9 20
-21 20 -31 -7 -13 -46 32 -24 28 -27 35 -14 34 10 0 23 -5 30 -9z m-332 -774
c1 -7 0 -8 -3 -2 -3 8 -9 7 -19 -1 -8 -6 -14 -7 -14 -2 0 24 31 28 36 5z"/>
</g>
</svg>
